<svg id="Capa_1" data-name="Capa 1" xmlns="http://www.w3.org/2000/svg" viewBox="0 0 1462.46 841.89"><defs><style>.cls-1{fill:#faf1db;stroke:#b7af97;}.cls-1,.cls-13,.cls-14,.cls-8{stroke-miterlimit:10;}.cls-2,.cls-9{fill:#211915;}.cls-3{fill:#76aadb;}.cls-4,.cls-8{fill:#009bdb;}.cls-5,.cls-9{font-size:39px;}.cls-5{font-family:MicrosoftSansSerif, Microsoft Sans Serif;}.cls-6,.cls-7{letter-spacing:0.13em;}.cls-11,.cls-7{fill:#f7f7f8;}.cls-8{stroke:#76aadb;}.cls-13,.cls-8{stroke-width:11px;}.cls-9{font-family:MSReferenceSansSerif, MS Reference Sans Serif;}.cls-10,.cls-11{letter-spacing:0.02em;}.cls-12{letter-spacing:0.02em;}.cls-13,.cls-14{fill:none;}.cls-13{stroke:#009bdb;}.cls-14{stroke:#4a72b2;stroke-width:5px;}</style></defs><title>Logo tatiana 2</title><rect class="cls-1" x="0.5" y="93.51" width="548.62" height="536.45"/><rect class="cls-2" x="867.18" width="595.28" height="841.89"/><path class="cls-3" d="M157.61,139.68h81.13a0,0,0,0,1,0,0v360a0,0,0,0,1,0,0h0a81.13,81.13,0,0,1-81.13-81.13V139.68a0,0,0,0,1,0,0Z"/><path class="cls-4" d="M307,147H391.7a0,0,0,0,1,0,0V507a0,0,0,0,1,0,0h-3.55A81.13,81.13,0,0,1,307,425.83V147A0,0,0,0,1,307,147Z"/><text class="cls-5" transform="translate(117.47 535.87)"><tspan class="cls-6">Tatiana</tspan><tspan class="cls-7" x="165.63" y="0">-</tspan><tspan class="cls-6" x="183.66" y="0">Torre</tspan><tspan x="302.07" y="0">s</tspan></text><rect class="cls-8" x="115.27" y="213.32" width="163.99" height="10.14"/><text class="cls-9" transform="translate(53.36 570.02)"><tspan class="cls-10">Producción</tspan><tspan class="cls-11" x="220.65" y="0">-</tspan><tspan class="cls-12" x="239.18" y="0">Mutimedi</tspan><tspan x="425.48" y="0">a </tspan></text><rect class="cls-13" x="266.37" y="246.77" width="163.99" height="10.14"/><rect class="cls-14" x="22.51" y="114.03" width="502.99" height="491.83" rx="19.73"/></svg>